<svg width="770" height="385" viewBox="0 0 770 385" fill="none" xmlns="http://www.w3.org/2000/svg">
<g clip-path="url(#clip0_2_2)">
<path d="M481 68C481 71.866 477.642 75 473.5 75C469.358 75 466 71.866 466 68C466 64.134 469.358 61 473.5 61C477.642 61 481 64.134 481 68Z" fill="black"/>
<path d="M571 102.5C571 106.642 567.642 110 563.5 110C559.358 110 556 106.642 556 102.5C556 98.3579 559.358 95 563.5 95C567.642 95 571 98.3579 571 102.5Z" fill="black"/>
<path d="M395 102.5C395 106.642 391.642 110 387.5 110C383.358 110 380 106.642 380 102.5C380 98.3579 383.358 95 387.5 95C391.642 95 395 98.3579 395 102.5Z" fill="black"/>
<circle cx="478" cy="212" r="53.5" stroke="black" stroke-width="15"/>
<circle cx="478" cy="212" r="12" fill="black"/>
<line x1="478" y1="209" x2="478" y2="178" stroke="black" stroke-width="12"/>
<line x1="512" y1="211" x2="478" y2="211" stroke="black" stroke-width="12"/>
<path d="M417 165.5L395 114.5C395 114.5 429 133 444.5 127.5C460 122 475 80 475 80C475 80 489.125 121.145 513.5 127.5C531.564 132.209 559.5 114.5 559.5 114.5L541 165.5C488.092 130.309 466.744 129.145 417 165.5Z" fill="black" stroke="black"/>
</g>
<defs>
<clipPath id="clip0_2_2">
<rect width="770" height="385" fill="white"/>
</clipPath>
</defs>
</svg>
