<svg width="1127" height="255" viewBox="0 0 1127 255" fill="none" xmlns="http://www.w3.org/2000/svg">
<g clip-path="url(#clip0_12_2)">
<path d="M717.46 188.54V89.72L746.44 87.02L750.94 89.18C754.54 85.58 758.74 83.6 763.54 83.24H765.88C767.92 83.24 769.84 83.42 771.64 83.78C773.44 84.02 775.18 84.32 776.86 84.68L794.86 93.68L798.28 124.64C792.76 122.48 788.08 121.4 784.24 121.4C783.64 121.4 782.98 121.4 782.26 121.4C781.66 121.4 781.06 121.46 780.46 121.58C777.58 121.82 774.94 122.9 772.54 124.82C770.14 126.74 768.22 129.2 766.78 132.2C765.46 135.08 764.8 138.08 764.8 141.2V194.84L735.46 197.54L717.46 188.54ZM745 132.2C745 128.72 745.78 125.42 747.34 122.3C748.9 119.06 751 116.42 753.64 114.38C756.28 112.22 759.16 111.02 762.28 110.78C763 110.66 763.72 110.6 764.44 110.6C765.16 110.6 765.82 110.6 766.42 110.6C768.58 110.6 770.56 110.84 772.36 111.32C774.28 111.68 776.2 112.22 778.12 112.94L775.06 86.3C773.98 86.06 772.66 85.82 771.1 85.58C769.54 85.22 767.8 85.04 765.88 85.04H763.72C759.52 85.4 755.62 87.32 752.02 90.8C748.54 94.16 746.26 98.48 745.18 103.76H744.64V89L719.26 91.34V186.74L745 184.4V132.2ZM873.181 191.78C871.261 193.34 868.981 194.72 866.341 195.92C863.821 197.12 860.821 197.84 857.341 198.08C856.381 198.2 855.361 198.26 854.281 198.26C853.201 198.26 852.181 198.26 851.221 198.26C841.621 198.26 833.101 196.22 825.661 192.14C818.341 188.18 812.581 181.94 808.381 173.42C804.301 164.9 802.261 153.86 802.261 140.3C802.261 123.26 805.501 110.12 811.981 100.88C818.581 91.64 827.821 86.48 839.701 85.4C840.181 85.4 840.601 85.4 840.961 85.4C841.441 85.28 841.921 85.22 842.401 85.22C845.761 85.22 848.641 85.58 851.041 86.3C853.441 87.02 855.601 87.68 857.521 88.28V48.32L886.861 45.8L904.861 54.8V191.78L877.321 193.94L873.181 191.78ZM859.321 49.94V94.94L858.781 95.12C857.941 92.72 856.081 90.8 853.201 89.36C850.321 87.8 846.721 87.02 842.401 87.02C842.041 87.02 841.621 87.08 841.141 87.2C840.781 87.2 840.361 87.2 839.881 87.2C828.481 88.28 819.661 93.32 813.421 102.32C807.181 111.2 804.061 123.86 804.061 140.3C804.061 156.14 806.941 168.02 812.701 175.94C818.581 183.74 826.441 187.64 836.281 187.64C836.881 187.64 837.421 187.64 837.901 187.64C838.501 187.64 839.041 187.58 839.521 187.46C845.161 186.86 849.721 185.12 853.201 182.24C856.681 179.24 859.141 175.88 860.581 172.16L861.121 172.34V183.14L885.061 181.16V47.78L859.321 49.94ZM844.201 163.7C840.361 163.7 837.061 161.72 834.301 157.76C831.661 153.68 830.341 147.08 830.341 137.96C830.341 128.84 831.601 122.24 834.121 118.16C836.641 114.08 840.481 111.8 845.641 111.32H847.261C850.381 111.32 853.021 112.1 855.181 113.66C857.341 115.22 858.721 117.26 859.321 119.78V144.62C859.321 150.02 858.001 154.46 855.361 157.94C852.841 161.42 849.481 163.34 845.281 163.7H844.201ZM857.521 124.1C854.881 124.46 852.961 126.38 851.761 129.86C850.681 133.34 850.141 139.04 850.141 146.96C850.141 149.48 850.201 151.88 850.321 154.16C850.441 156.32 850.801 158.12 851.401 159.56C855.481 156.2 857.521 151.22 857.521 144.62V124.1ZM989.578 132.56C996.658 136.04 1002.36 140.36 1006.68 145.52C1011.12 150.68 1013.34 156.68 1013.34 163.52C1013.34 173.72 1010.1 181.88 1003.62 188C997.258 194.24 987.658 197.9 974.818 198.98C973.738 199.1 972.658 199.16 971.578 199.16C970.498 199.28 969.418 199.34 968.338 199.34C955.378 199.34 944.278 196.1 935.038 189.62C925.918 183.14 919.438 174.2 915.598 162.8L938.638 148.76C932.398 145.88 927.658 142.34 924.418 138.14C921.178 133.82 919.558 128.36 919.558 121.76V121.22C919.678 115.22 921.178 109.7 924.058 104.66C926.938 99.62 931.078 95.48 936.478 92.24C941.878 88.88 948.298 86.9 955.738 86.3C956.698 86.18 957.598 86.12 958.438 86.12C959.398 86.12 960.298 86.12 961.138 86.12C966.658 86.12 972.238 86.9 977.878 88.46C983.518 89.9 988.798 92.12 993.718 95.12C998.638 98 1002.72 101.72 1005.96 106.28C1009.2 110.72 1011.18 115.94 1011.9 121.94L989.578 132.56ZM955.018 164.6C951.058 164.6 947.578 163.28 944.578 160.64C941.698 158 939.598 154.82 938.278 151.1L917.938 163.7C923.338 180.14 934.498 188.36 951.418 188.36C952.258 188.36 953.098 188.36 953.938 188.36C954.898 188.36 955.798 188.3 956.638 188.18C968.878 187.22 978.058 183.86 984.178 178.1C990.418 172.22 993.538 164.36 993.538 154.52C993.538 145.88 991.378 139.46 987.058 135.26C982.858 130.94 975.418 127.82 964.738 125.9L955.378 124.28C952.138 123.68 949.558 123.02 947.638 122.3C945.838 121.46 944.938 119.96 944.938 117.8V117.26C945.178 115.34 946.198 113.72 947.998 112.4C949.798 111.08 952.498 110.3 956.098 110.06H957.538C961.018 110.06 964.018 111.14 966.538 113.3C969.178 115.34 970.918 118.1 971.758 121.58L991.738 112.04C990.178 104.36 986.758 98.42 981.478 94.22C976.198 90.02 969.298 87.92 960.778 87.92C959.938 87.92 959.098 87.92 958.258 87.92C957.538 87.92 956.758 87.98 955.918 88.1C948.838 88.7 942.658 90.56 937.378 93.68C932.218 96.8 928.258 100.76 925.498 105.56C922.738 110.24 921.358 115.46 921.358 121.22C921.358 129.26 923.458 135.38 927.658 139.58C931.858 143.66 938.518 146.36 947.638 147.68L957.898 149.12C961.738 149.6 964.498 150.56 966.178 152C967.978 153.44 968.878 155.18 968.878 157.22C968.878 159.5 967.858 161.24 965.818 162.44C963.778 163.52 960.598 164.24 956.278 164.6H955.018ZM969.778 120.5C969.418 120.38 968.818 120.32 967.978 120.32C966.418 120.32 964.978 120.74 963.658 121.58C962.338 122.42 961.498 123.14 961.138 123.74C964.258 124.22 967.258 124.88 970.138 125.72C973.138 126.44 975.958 127.28 978.598 128.24L970.498 124.1L969.778 120.5ZM957.178 157.4C957.538 158.24 957.898 159.14 958.258 160.1C958.618 160.94 959.038 161.72 959.518 162.44C963.838 161.84 966.298 160.58 966.898 158.66C966.898 158.66 966.658 158.42 966.178 157.94C965.818 157.46 965.398 157.16 964.918 157.04C961.198 156.08 957.718 155.18 954.478 154.34C951.238 153.5 948.238 152.6 945.478 151.64L957.178 157.4Z" fill="black"/>
<path d="M49.22 187.46V91.34L37.88 92.24L19.88 83.24V53L109.52 45.08L127.52 54.08V84.32L98.18 86.84V193.4L67.22 196.28L49.22 187.46ZM107.72 73.7V47.06L21.68 54.62V81.26L51.02 78.74V185.48L78.38 183.14V76.22L107.72 73.7ZM139.739 187.46V88.46L151.979 87.56L139.379 81.26V50.66L169.439 48.14L187.439 57.14V87.74L174.659 88.82L186.899 94.94V193.76L157.739 196.28L139.739 187.46ZM141.179 52.28V79.28L167.639 77.12V50.12L141.179 52.28ZM141.539 90.08V185.48L167.099 183.32V87.92L141.539 90.08ZM298.353 187.1V195.56L269.373 198.26L252.273 189.26V197.9L222.933 200.42L204.933 191.42V92.6L232.473 90.26L237.333 94.58C239.253 92.78 241.593 91.28 244.353 90.08C247.113 88.76 249.933 87.98 252.813 87.74C253.293 87.74 253.713 87.74 254.073 87.74C254.553 87.62 255.033 87.56 255.513 87.56C260.433 87.56 264.993 88.7 269.193 90.98C273.513 93.26 276.813 95.84 279.093 98.72C280.773 95.6 283.293 92.72 286.653 90.08C290.013 87.32 294.093 85.76 298.893 85.4C299.493 85.4 300.093 85.4 300.693 85.4C301.413 85.28 302.133 85.22 302.853 85.22C310.173 85.22 317.013 86.6 323.373 89.36C329.733 92.12 334.833 96.14 338.673 101.42C342.633 106.58 344.613 112.88 344.613 120.32V193.58L315.273 195.92L298.353 187.1ZM324.813 111.32C324.813 103.04 322.653 96.92 318.333 92.96C314.013 89 308.613 87.02 302.133 87.02C301.653 87.02 301.173 87.08 300.693 87.2C300.213 87.2 299.673 87.2 299.073 87.2C295.233 87.56 291.813 88.76 288.813 90.8C285.933 92.84 283.593 95.3 281.793 98.18C279.993 101.06 278.733 104 278.013 107L277.473 106.82C276.513 102.5 274.233 98.54 270.633 94.94C267.153 91.22 262.173 89.36 255.693 89.36C255.213 89.36 254.733 89.42 254.253 89.54C253.893 89.54 253.473 89.54 252.993 89.54C247.113 90.02 242.253 92.3 238.413 96.38C234.573 100.46 232.173 105.08 231.213 110.24L230.673 110.42V92.24L206.733 94.22V189.44L232.473 187.46V128.6C233.073 125.6 234.273 122.9 236.073 120.5C237.993 118.1 240.573 116.78 243.813 116.54H245.073C247.593 116.54 249.573 117.44 251.013 119.24C252.453 120.92 253.173 123.74 253.173 127.7V187.46L278.553 185.12V126.26C279.153 123.38 280.353 120.74 282.153 118.34C284.073 115.94 286.593 114.62 289.713 114.38H290.973C293.613 114.38 295.593 115.22 296.913 116.9C298.353 118.58 299.073 121.4 299.073 125.36V185.12L324.813 182.96V111.32ZM460.374 163.88C457.134 173.96 452.334 182.12 445.974 188.36C439.734 194.6 431.214 198.2 420.414 199.16C419.094 199.28 417.774 199.34 416.454 199.34C415.254 199.46 413.994 199.52 412.674 199.52C402.234 199.52 392.814 197.36 384.414 193.04C376.134 188.84 369.534 182.48 364.614 173.96C359.694 165.44 357.234 154.88 357.234 142.28C357.234 131.24 359.094 121.7 362.814 113.66C366.654 105.62 371.814 99.32 378.294 94.76C384.894 90.08 392.394 87.38 400.794 86.66C401.634 86.54 402.474 86.48 403.314 86.48C404.274 86.48 405.174 86.48 406.014 86.48C412.734 86.48 419.334 87.68 425.814 90.08C432.414 92.36 438.354 95.96 443.634 100.88C449.034 105.8 453.294 112.16 456.414 119.96C459.654 127.64 461.274 136.88 461.274 147.68C461.274 148.64 461.274 149.66 461.274 150.74C461.274 151.7 461.214 152.66 461.094 153.62L442.194 155.24L460.374 163.88ZM417.894 150.02C416.814 154.1 414.834 157.46 411.954 160.1C409.074 162.74 405.354 164.3 400.794 164.78H399.354C395.274 164.78 391.914 163.28 389.274 160.28C386.634 157.28 385.314 153.14 385.314 147.86L441.294 143C441.414 141.8 441.474 140.66 441.474 139.58C441.474 138.38 441.474 137.24 441.474 136.16C441.474 121.04 438.234 109.28 431.754 100.88C425.274 92.48 416.334 88.28 404.934 88.28C404.334 88.28 403.674 88.28 402.954 88.28C402.354 88.28 401.694 88.34 400.974 88.46C392.934 89.06 385.734 91.64 379.374 96.2C373.014 100.64 368.034 106.76 364.434 114.56C360.834 122.36 359.034 131.6 359.034 142.28C359.034 157.76 362.514 169.34 369.474 177.02C376.434 184.7 385.674 188.54 397.194 188.54C398.034 188.54 398.874 188.54 399.714 188.54C400.554 188.54 401.394 188.48 402.234 188.36C412.554 187.52 420.714 184.16 426.714 178.28C432.834 172.4 437.214 165.08 439.854 156.32L417.894 150.02ZM386.214 127.7C386.214 123.74 387.594 120.32 390.354 117.44C393.114 114.56 396.654 112.94 400.974 112.58H402.594C406.194 112.58 409.134 113.66 411.414 115.82C413.814 117.86 415.014 120.98 415.014 125.18L386.214 127.7ZM400.794 159.02C400.794 159.62 401.034 160.22 401.514 160.82C402.114 161.42 402.714 162.02 403.314 162.62C405.474 162.02 407.154 161.3 408.354 160.46C409.554 159.62 410.574 158.78 411.414 157.94L400.794 159.02ZM476.938 189.26V52.46L507.718 49.76L525.718 58.76V154.7L550.918 152.54L568.918 161.54V191.96L494.938 198.26L476.938 189.26ZM505.918 158.3V51.74L478.738 54.08V187.46L549.118 181.34V154.52L505.918 158.3Z" fill="black"/>
<path d="M649 15.5C649 19.6421 645.642 23 641.5 23C637.358 23 634 19.6421 634 15.5C634 11.3579 637.358 8 641.5 8C645.642 8 649 11.3579 649 15.5Z" fill="black"/>
<path d="M717 26.5C717 30.6421 713.642 34 709.5 34C705.358 34 702 30.6421 702 26.5C702 22.3579 705.358 19 709.5 19C713.642 19 717 22.3579 717 26.5Z" fill="black"/>
<path d="M584 26.5C584 30.6421 580.642 34 576.5 34C572.358 34 569 30.6421 569 26.5C569 22.3579 572.358 19 576.5 19C580.642 19 584 22.3579 584 26.5Z" fill="black"/>
<path d="M641.5 26C641.5 26 630.5 47 612 50C593.5 53 580 37 580 37C580 37 590 91 608 81C626 71 663 74.5 676.5 81C690 87.5 707 37 707 37C707 37 693 50 676.5 50C660 50 641.5 26 641.5 26Z" fill="black"/>
<path d="M641.5 26L641.977 25.632L641.403 24.8866L640.966 25.7203L641.5 26ZM580 37L580.461 36.6113L578.993 34.8717L579.407 37.1098L580 37ZM707 37L707.571 37.1923L706.59 36.5583L707 37ZM641.5 26C640.966 25.7203 640.966 25.7202 640.966 25.7202C640.966 25.7203 640.966 25.7204 640.966 25.7206C640.966 25.721 640.965 25.7218 640.965 25.7228C640.964 25.7249 640.962 25.7283 640.959 25.7329C640.955 25.7421 640.947 25.7563 640.937 25.7753C640.916 25.8133 640.885 25.8705 640.844 25.9459C640.761 26.0966 640.636 26.3196 640.47 26.6055C640.138 27.1773 639.642 28 638.988 28.9979C637.68 30.9944 635.746 33.6873 633.239 36.4718C628.216 42.0531 620.957 47.937 611.904 49.405L612.096 50.595C621.543 49.063 629.034 42.9469 634.136 37.2782C636.692 34.4377 638.664 31.6931 639.996 29.6584C640.663 28.6406 641.171 27.7993 641.512 27.2109C641.683 26.9167 641.813 26.6856 641.9 26.5273C641.944 26.4481 641.977 26.3871 641.999 26.3454C642.01 26.3246 642.019 26.3086 642.024 26.2976C642.027 26.2921 642.03 26.2878 642.031 26.2848C642.032 26.2833 642.033 26.2822 642.033 26.2813C642.033 26.2809 642.034 26.2805 642.034 26.2802C642.034 26.2799 642.034 26.2797 641.5 26ZM611.904 49.405C602.852 50.8728 595.003 47.6967 589.386 44.1167C586.581 42.3285 584.344 40.4469 582.81 39.0128C582.043 38.2961 581.453 37.6922 581.056 37.2691C580.857 37.0575 580.707 36.8913 580.607 36.7788C580.557 36.7225 580.52 36.6798 580.495 36.6515C580.483 36.6374 580.474 36.6268 580.468 36.6201C580.465 36.6167 580.463 36.6143 580.462 36.6128C580.461 36.6121 580.461 36.6116 580.461 36.6113C580.461 36.6112 580.461 36.6112 580.461 36.6111C580.461 36.6112 580.461 36.6113 580 37C579.539 37.3887 579.54 37.3889 579.54 37.3892C579.54 37.3894 579.54 37.3898 579.541 37.3901C579.541 37.3908 579.542 37.3918 579.543 37.393C579.545 37.3954 579.548 37.3988 579.552 37.4031C579.559 37.4117 579.57 37.4241 579.583 37.4401C579.611 37.4722 579.652 37.5189 579.705 37.5791C579.812 37.6996 579.97 37.8741 580.177 38.0942C580.59 38.5344 581.199 39.157 581.987 39.8935C583.562 41.3656 585.857 43.2965 588.739 45.1333C594.497 48.8033 602.648 52.1272 612.096 50.595L611.904 49.405ZM580 37C579.407 37.1098 579.407 37.1101 579.407 37.1106C579.408 37.111 579.408 37.1117 579.408 37.1126C579.408 37.1144 579.409 37.117 579.409 37.1204C579.411 37.1272 579.412 37.1373 579.415 37.1505C579.42 37.177 579.427 37.2162 579.437 37.2678C579.457 37.3708 579.486 37.523 579.525 37.7208C579.604 38.1164 579.72 38.6943 579.875 39.4257C580.185 40.8884 580.647 42.9656 581.259 45.4266C582.481 50.3459 584.3 56.8102 586.688 62.9679C589.07 69.1096 592.041 75.0138 595.594 78.7586C597.375 80.6354 599.335 82.0062 601.477 82.5638C603.638 83.1261 605.921 82.8446 608.293 81.5269L607.707 80.4731C605.579 81.6554 603.612 81.8739 601.781 81.3972C599.931 80.9156 598.157 79.7083 596.469 77.9289C593.084 74.3612 590.18 68.6404 587.812 62.5321C585.45 56.4398 583.644 50.0291 582.429 45.1359C581.821 42.6907 581.362 40.6273 581.055 39.1759C580.901 38.4503 580.785 37.8778 580.708 37.4872C580.669 37.2919 580.641 37.1421 580.621 37.0414C580.612 36.9911 580.604 36.953 580.6 36.9277C580.597 36.915 580.596 36.9055 580.594 36.8992C580.594 36.8961 580.593 36.8938 580.593 36.8923C580.593 36.8915 580.593 36.891 580.593 36.8907C580.593 36.8904 580.593 36.8902 580 37ZM608.293 81.5269C617.147 76.6079 630.762 74.9785 643.918 75.4149C657.068 75.8512 669.597 78.3454 676.239 81.5431L676.761 80.4569C669.903 77.1546 657.182 74.6488 643.957 74.2101C630.738 73.7715 616.853 75.3921 607.707 80.4731L608.293 81.5269ZM676.239 81.5431C678.11 82.4444 680.038 82.3442 681.926 81.5289C683.793 80.7225 685.632 79.2145 687.406 77.2739C690.955 73.3908 694.376 67.6275 697.351 61.7082C700.331 55.7789 702.886 49.6505 704.694 45.0078C705.599 42.6857 706.318 40.7333 706.81 39.3609C707.057 38.6747 707.247 38.1333 707.375 37.7632C707.439 37.5781 707.488 37.4358 707.521 37.3395C707.538 37.2914 707.55 37.2548 707.558 37.2301C707.563 37.2178 707.566 37.2084 707.568 37.2021C707.569 37.199 707.57 37.1966 707.57 37.1949C707.571 37.1941 707.571 37.1934 707.571 37.193C707.571 37.1926 707.571 37.1923 707 37C706.429 36.8077 706.429 36.8078 706.429 36.8081C706.428 36.8085 706.428 36.809 706.428 36.8097C706.428 36.8111 706.427 36.8133 706.426 36.8163C706.424 36.8222 706.421 36.8311 706.417 36.843C706.409 36.8668 706.397 36.9026 706.38 36.9498C706.348 37.0443 706.3 37.1847 706.236 37.3679C706.109 37.7343 705.921 38.2716 705.676 38.9536C705.186 40.3175 704.471 42.2596 703.571 44.5703C701.77 49.1933 699.231 55.2836 696.274 61.1668C693.312 67.06 689.951 72.7029 686.516 76.4605C684.798 78.3402 683.094 79.7111 681.448 80.4223C679.821 81.1246 678.265 81.1806 676.761 80.4569L676.239 81.5431ZM707 37C706.59 36.5583 706.59 36.5582 706.59 36.5582C706.59 36.5583 706.59 36.5583 706.59 36.5584C706.589 36.5587 706.589 36.5591 706.588 36.5597C706.587 36.561 706.585 36.563 706.582 36.5658C706.576 36.5715 706.566 36.5801 706.553 36.5918C706.528 36.6151 706.489 36.6503 706.437 36.6965C706.334 36.7891 706.178 36.9259 705.974 37.1008C705.566 37.4506 704.962 37.9522 704.185 38.5551C702.631 39.7613 700.387 41.3705 697.633 42.9796C692.116 46.2033 684.599 49.3973 676.5 49.3973V50.6027C684.901 50.6027 692.634 47.2967 698.242 44.0204C701.05 42.3795 703.338 40.7387 704.924 39.5074C705.718 38.8915 706.337 38.3775 706.758 38.0164C706.969 37.8358 707.131 37.6934 707.24 37.5955C707.295 37.5465 707.337 37.5087 707.365 37.4828C707.38 37.4699 707.39 37.4599 707.398 37.453C707.402 37.4496 707.405 37.4469 707.407 37.445C707.408 37.4441 707.408 37.4433 707.409 37.4427C707.409 37.4425 707.41 37.4422 707.41 37.4421C707.41 37.4419 707.41 37.4417 707 37ZM676.5 49.3973C672.516 49.3973 668.369 47.9462 664.363 45.723C660.361 43.5023 656.539 40.5335 653.215 37.5514C649.893 34.5709 647.081 31.5885 645.1 29.3504C644.109 28.2318 643.327 27.3002 642.793 26.6491C642.526 26.3236 642.322 26.0682 642.184 25.8948C642.115 25.8081 642.063 25.7419 642.028 25.6976C642.011 25.6754 641.998 25.6588 641.99 25.6478C641.985 25.6423 641.982 25.6382 641.98 25.6356C641.979 25.6343 641.978 25.6333 641.978 25.6327C641.978 25.6324 641.978 25.6322 641.977 25.6321C641.977 25.632 641.977 25.632 641.5 26C641.023 26.368 641.023 26.3682 641.023 26.3685C641.023 26.3687 641.023 26.369 641.024 26.3695C641.024 26.3703 641.025 26.3716 641.027 26.3732C641.029 26.3763 641.033 26.381 641.037 26.387C641.047 26.3991 641.061 26.4169 641.079 26.4401C641.115 26.4867 641.169 26.5552 641.24 26.6443C641.381 26.8224 641.59 27.0827 641.861 27.4134C642.403 28.0748 643.195 29.0182 644.197 30.1496C646.2 32.4115 649.044 35.4291 652.41 38.4486C655.774 41.4665 659.67 44.4977 663.778 46.777C667.881 49.0538 672.234 50.6027 676.5 50.6027V49.3973Z" fill="black"/>
<circle cx="641" cy="143" r="53.5" stroke="black" stroke-width="15"/>
<circle cx="641" cy="143" r="12" fill="black"/>
<line x1="641" y1="140" x2="641" y2="109" stroke="black" stroke-width="12"/>
<line x1="675" y1="142" x2="641" y2="142" stroke="black" stroke-width="12"/>
</g>
<defs>
<clipPath id="clip0_12_2">
<rect width="1127" height="255" fill="white"/>
</clipPath>
</defs>
</svg>
