<svg width="1127" height="255" viewBox="0 0 1127 255" fill="none" xmlns="http://www.w3.org/2000/svg">
<g clip-path="url(#clip0_12_2)">
<path d="M771.4 211.6V101.8L803.6 98.8L808.6 101.2C812.6 97.2 817.267 95 822.6 94.6H825.2C827.467 94.6 829.6 94.8 831.6 95.2C833.6 95.4667 835.533 95.8 837.4 96.2L857.4 106.2L861.2 140.6C855.067 138.2 849.867 137 845.6 137C844.933 137 844.2 137 843.4 137C842.733 137 842.067 137.067 841.4 137.2C838.2 137.467 835.267 138.667 832.6 140.8C829.933 142.933 827.8 145.667 826.2 149C824.733 152.2 824 155.533 824 159V218.6L791.4 221.6L771.4 211.6ZM802 149C802 145.133 802.867 141.467 804.6 138C806.333 134.4 808.667 131.467 811.6 129.2C814.533 126.8 817.733 125.467 821.2 125.2C822 125.067 822.8 125 823.6 125C824.4 125 825.133 125 825.8 125C828.2 125 830.4 125.267 832.4 125.8C834.533 126.2 836.667 126.8 838.8 127.6L835.4 98C834.2 97.7333 832.733 97.4667 831 97.2C829.267 96.8 827.333 96.6 825.2 96.6H822.8C818.133 97 813.8 99.1333 809.8 103C805.933 106.733 803.4 111.533 802.2 117.4H801.6V101L773.4 103.6V209.6L802 207V149ZM944.423 215.2C942.29 216.933 939.757 218.467 936.823 219.8C934.023 221.133 930.69 221.933 926.823 222.2C925.757 222.333 924.623 222.4 923.423 222.4C922.223 222.4 921.09 222.4 920.023 222.4C909.357 222.4 899.89 220.133 891.623 215.6C883.49 211.2 877.09 204.267 872.423 194.8C867.89 185.333 865.623 173.067 865.623 158C865.623 139.067 869.223 124.467 876.423 114.2C883.757 103.933 894.023 98.2 907.223 97C907.757 97 908.223 97 908.623 97C909.157 96.8667 909.69 96.8 910.223 96.8C913.957 96.8 917.157 97.2 919.823 98C922.49 98.8 924.89 99.5333 927.023 100.2V55.8L959.623 53L979.623 63V215.2L949.023 217.6L944.423 215.2ZM929.023 57.6V107.6L928.423 107.8C927.49 105.133 925.423 103 922.223 101.4C919.023 99.6667 915.023 98.8 910.223 98.8C909.823 98.8 909.357 98.8667 908.823 99C908.423 99 907.957 99 907.423 99C894.757 100.2 884.957 105.8 878.023 115.8C871.09 125.667 867.623 139.733 867.623 158C867.623 175.6 870.823 188.8 877.223 197.6C883.757 206.267 892.49 210.6 903.423 210.6C904.09 210.6 904.69 210.6 905.223 210.6C905.89 210.6 906.49 210.533 907.023 210.4C913.29 209.733 918.357 207.8 922.223 204.6C926.09 201.267 928.823 197.533 930.423 193.4L931.023 193.6V205.6L957.623 203.4V55.2L929.023 57.6ZM912.223 184C907.957 184 904.29 181.8 901.223 177.4C898.29 172.867 896.823 165.533 896.823 155.4C896.823 145.267 898.223 137.933 901.023 133.4C903.823 128.867 908.09 126.333 913.823 125.8H915.623C919.09 125.8 922.023 126.667 924.423 128.4C926.823 130.133 928.357 132.4 929.023 135.2V162.8C929.023 168.8 927.557 173.733 924.623 177.6C921.823 181.467 918.09 183.6 913.423 184H912.223ZM927.023 140C924.09 140.4 921.957 142.533 920.623 146.4C919.423 150.267 918.823 156.6 918.823 165.4C918.823 168.2 918.89 170.867 919.023 173.4C919.157 175.8 919.557 177.8 920.223 179.4C924.757 175.667 927.023 170.133 927.023 162.8V140ZM1073.75 149.4C1081.62 153.267 1087.95 158.067 1092.75 163.8C1097.69 169.533 1100.15 176.2 1100.15 183.8C1100.15 195.133 1096.55 204.2 1089.35 211C1082.29 217.933 1071.62 222 1057.35 223.2C1056.15 223.333 1054.95 223.4 1053.75 223.4C1052.55 223.533 1051.35 223.6 1050.15 223.6C1035.75 223.6 1023.42 220 1013.15 212.8C1003.02 205.6 995.82 195.667 991.553 183L1017.15 167.4C1010.22 164.2 1004.95 160.267 1001.35 155.6C997.753 150.8 995.953 144.733 995.953 137.4V136.8C996.086 130.133 997.753 124 1000.95 118.4C1004.15 112.8 1008.75 108.2 1014.75 104.6C1020.75 100.867 1027.89 98.6667 1036.15 98C1037.22 97.8667 1038.22 97.8 1039.15 97.8C1040.22 97.8 1041.22 97.8 1042.15 97.8C1048.29 97.8 1054.49 98.6667 1060.75 100.4C1067.02 102 1072.89 104.467 1078.35 107.8C1083.82 111 1088.35 115.133 1091.95 120.2C1095.55 125.133 1097.75 130.933 1098.55 137.6L1073.75 149.4ZM1035.35 185C1030.95 185 1027.09 183.533 1023.75 180.6C1020.55 177.667 1018.22 174.133 1016.75 170L994.153 184C1000.15 202.267 1012.55 211.4 1031.35 211.4C1032.29 211.4 1033.22 211.4 1034.15 211.4C1035.22 211.4 1036.22 211.333 1037.15 211.2C1050.75 210.133 1060.95 206.4 1067.75 200C1074.69 193.467 1078.15 184.733 1078.15 173.8C1078.15 164.2 1075.75 157.067 1070.95 152.4C1066.29 147.6 1058.02 144.133 1046.15 142L1035.75 140.2C1032.15 139.533 1029.29 138.8 1027.15 138C1025.15 137.067 1024.15 135.4 1024.15 133V132.4C1024.42 130.267 1025.55 128.467 1027.55 127C1029.55 125.533 1032.55 124.667 1036.55 124.4H1038.15C1042.02 124.4 1045.35 125.6 1048.15 128C1051.09 130.267 1053.02 133.333 1053.95 137.2L1076.15 126.6C1074.42 118.067 1070.62 111.467 1064.75 106.8C1058.89 102.133 1051.22 99.8 1041.75 99.8C1040.82 99.8 1039.89 99.8 1038.95 99.8C1038.15 99.8 1037.29 99.8667 1036.35 100C1028.49 100.667 1021.62 102.733 1015.75 106.2C1010.02 109.667 1005.62 114.067 1002.55 119.4C999.486 124.6 997.953 130.4 997.953 136.8C997.953 145.733 1000.29 152.533 1004.95 157.2C1009.62 161.733 1017.02 164.733 1027.15 166.2L1038.55 167.8C1042.82 168.333 1045.89 169.4 1047.75 171C1049.75 172.6 1050.75 174.533 1050.75 176.8C1050.75 179.333 1049.62 181.267 1047.35 182.6C1045.09 183.8 1041.55 184.6 1036.75 185H1035.35ZM1051.75 136C1051.35 135.867 1050.69 135.8 1049.75 135.8C1048.02 135.8 1046.42 136.267 1044.95 137.2C1043.49 138.133 1042.55 138.933 1042.15 139.6C1045.62 140.133 1048.95 140.867 1052.15 141.8C1055.49 142.6 1058.62 143.533 1061.55 144.6L1052.55 140L1051.75 136ZM1037.75 177C1038.15 177.933 1038.55 178.933 1038.95 180C1039.35 180.933 1039.82 181.8 1040.35 182.6C1045.15 181.933 1047.89 180.533 1048.55 178.4C1048.55 178.4 1048.29 178.133 1047.75 177.6C1047.35 177.067 1046.89 176.733 1046.35 176.6C1042.22 175.533 1038.35 174.533 1034.75 173.6C1031.15 172.667 1027.82 171.667 1024.75 170.6L1037.75 177Z" fill="black"/>
<path d="M52.8 210.4V103.6L40.2 104.6L20.2 94.6V61L119.8 52.2L139.8 62.2V95.8L107.2 98.6V217L72.8 220.2L52.8 210.4ZM117.8 84V54.4L22.2 62.8V92.4L54.8 89.6V208.2L85.2 205.6V86.8L117.8 84ZM153.377 210.4V100.4L166.977 99.4L152.977 92.4V58.4L186.377 55.6L206.377 65.6V99.6L192.177 100.8L205.777 107.6V217.4L173.377 220.2L153.377 210.4ZM154.977 60.2V90.2L184.377 87.8V57.8L154.977 60.2ZM155.377 102.2V208.2L183.777 205.8V99.8L155.377 102.2ZM329.614 210V219.4L297.414 222.4L278.414 212.4V222L245.814 224.8L225.814 214.8V105L256.414 102.4L261.814 107.2C263.947 105.2 266.547 103.533 269.614 102.2C272.681 100.733 275.814 99.8667 279.014 99.6C279.547 99.6 280.014 99.6 280.414 99.6C280.947 99.4667 281.481 99.4 282.014 99.4C287.481 99.4 292.547 100.667 297.214 103.2C302.014 105.733 305.681 108.6 308.214 111.8C310.081 108.333 312.881 105.133 316.614 102.2C320.347 99.1333 324.881 97.4 330.214 97C330.881 97 331.547 97 332.214 97C333.014 96.8667 333.814 96.8 334.614 96.8C342.747 96.8 350.347 98.3333 357.414 101.4C364.481 104.467 370.147 108.933 374.414 114.8C378.814 120.533 381.014 127.533 381.014 135.8V217.2L348.414 219.8L329.614 210ZM359.014 125.8C359.014 116.6 356.614 109.8 351.814 105.4C347.014 101 341.014 98.8 333.814 98.8C333.281 98.8 332.747 98.8667 332.214 99C331.681 99 331.081 99 330.414 99C326.147 99.4 322.347 100.733 319.014 103C315.814 105.267 313.214 108 311.214 111.2C309.214 114.4 307.814 117.667 307.014 121L306.414 120.8C305.347 116 302.814 111.6 298.814 107.6C294.947 103.467 289.414 101.4 282.214 101.4C281.681 101.4 281.147 101.467 280.614 101.6C280.214 101.6 279.747 101.6 279.214 101.6C272.681 102.133 267.281 104.667 263.014 109.2C258.747 113.733 256.081 118.867 255.014 124.6L254.414 124.8V104.6L227.814 106.8V212.6L256.414 210.4V145C257.081 141.667 258.414 138.667 260.414 136C262.547 133.333 265.414 131.867 269.014 131.6H270.414C273.214 131.6 275.414 132.6 277.014 134.6C278.614 136.467 279.414 139.6 279.414 144V210.4L307.614 207.8V142.4C308.281 139.2 309.614 136.267 311.614 133.6C313.747 130.933 316.547 129.467 320.014 129.2H321.414C324.347 129.2 326.547 130.133 328.014 132C329.614 133.867 330.414 137 330.414 141.4V207.8L359.014 205.4V125.8ZM509.638 184.2C506.038 195.4 500.704 204.467 493.638 211.4C486.704 218.333 477.238 222.333 465.238 223.4C463.771 223.533 462.304 223.6 460.838 223.6C459.504 223.733 458.104 223.8 456.638 223.8C445.038 223.8 434.571 221.4 425.238 216.6C416.038 211.933 408.704 204.867 403.238 195.4C397.771 185.933 395.038 174.2 395.038 160.2C395.038 147.933 397.104 137.333 401.238 128.4C405.504 119.467 411.238 112.467 418.438 107.4C425.771 102.2 434.104 99.2 443.438 98.4C444.371 98.2667 445.304 98.2 446.238 98.2C447.304 98.2 448.304 98.2 449.237 98.2C456.704 98.2 464.038 99.5333 471.238 102.2C478.571 104.733 485.171 108.733 491.038 114.2C497.038 119.667 501.771 126.733 505.238 135.4C508.838 143.933 510.638 154.2 510.638 166.2C510.638 167.267 510.638 168.4 510.638 169.6C510.638 170.667 510.571 171.733 510.438 172.8L489.438 174.6L509.638 184.2ZM462.438 168.8C461.238 173.333 459.038 177.067 455.838 180C452.638 182.933 448.504 184.667 443.438 185.2H441.837C437.304 185.2 433.571 183.533 430.638 180.2C427.704 176.867 426.238 172.267 426.238 166.4L488.438 161C488.571 159.667 488.638 158.4 488.638 157.2C488.638 155.867 488.638 154.6 488.638 153.4C488.638 136.6 485.038 123.533 477.838 114.2C470.638 104.867 460.704 100.2 448.038 100.2C447.371 100.2 446.638 100.2 445.838 100.2C445.171 100.2 444.438 100.267 443.638 100.4C434.704 101.067 426.704 103.933 419.638 109C412.571 113.933 407.038 120.733 403.038 129.4C399.038 138.067 397.037 148.333 397.037 160.2C397.037 177.4 400.904 190.267 408.638 198.8C416.371 207.333 426.638 211.6 439.438 211.6C440.371 211.6 441.304 211.6 442.238 211.6C443.171 211.6 444.104 211.533 445.038 211.4C456.504 210.467 465.571 206.733 472.238 200.2C479.038 193.667 483.904 185.533 486.838 175.8L462.438 168.8ZM427.238 144C427.238 139.6 428.771 135.8 431.838 132.6C434.904 129.4 438.838 127.6 443.638 127.2H445.438C449.438 127.2 452.704 128.4 455.238 130.8C457.904 133.067 459.238 136.533 459.238 141.2L427.238 144ZM443.438 178.8C443.438 179.467 443.704 180.133 444.238 180.8C444.904 181.467 445.571 182.133 446.238 182.8C448.638 182.133 450.504 181.333 451.838 180.4C453.171 179.467 454.304 178.533 455.238 177.6L443.438 178.8ZM528.042 212.4V60.4L562.242 57.4L582.242 67.4V174L610.242 171.6L630.242 181.6V215.4L548.042 222.4L528.042 212.4ZM560.242 178V59.6L530.042 62.2V210.4L608.242 203.6V173.8L560.242 178Z" fill="black"/>
<path d="M702 26.5C702 30.6421 698.642 34 694.5 34C690.358 34 687 30.6421 687 26.5C687 22.3579 690.358 19 694.5 19C698.642 19 702 22.3579 702 26.5Z" fill="black"/>
<path d="M772 41.5C772 45.6421 768.642 49 764.5 49C760.358 49 757 45.6421 757 41.5C757 37.3579 760.358 34 764.5 34C768.642 34 772 37.3579 772 41.5Z" fill="black"/>
<path d="M638 41.5C638 45.6421 634.642 49 630.5 49C626.358 49 623 45.6421 623 41.5C623 37.3579 626.358 34 630.5 34C634.642 34 638 37.3579 638 41.5Z" fill="black"/>
<path d="M694.5 42C694.5 42 683.5 63 665 66C646.5 69 633 53 633 53C633 53 643 107 661 97C679 87 716 90.5 729.5 97C743 103.5 760 53 760 53C760 53 746 66 729.5 66C713 66 694.5 42 694.5 42Z" fill="black"/>
<path d="M694.5 42L694.977 41.632L694.403 40.8866L693.966 41.7203L694.5 42ZM633 53L633.461 52.6113L631.993 50.8717L632.407 53.1098L633 53ZM760 53L760.571 53.1923L759.59 52.5583L760 53ZM694.5 42C693.966 41.7203 693.966 41.7202 693.966 41.7202C693.966 41.7203 693.966 41.7204 693.966 41.7206C693.966 41.721 693.965 41.7218 693.965 41.7228C693.964 41.7249 693.962 41.7283 693.959 41.7329C693.955 41.7421 693.947 41.7563 693.937 41.7753C693.916 41.8133 693.885 41.8705 693.844 41.9459C693.761 42.0966 693.636 42.3196 693.47 42.6055C693.138 43.1773 692.642 44 691.988 44.9979C690.68 46.9944 688.746 49.6873 686.239 52.4718C681.216 58.0531 673.957 63.937 664.904 65.405L665.096 66.595C674.543 65.063 682.034 58.9469 687.136 53.2782C689.692 50.4377 691.664 47.6931 692.996 45.6584C693.663 44.6406 694.171 43.7993 694.512 43.2109C694.683 42.9167 694.813 42.6856 694.9 42.5273C694.944 42.4481 694.977 42.3871 694.999 42.3454C695.01 42.3246 695.019 42.3086 695.024 42.2976C695.027 42.2921 695.03 42.2878 695.031 42.2848C695.032 42.2833 695.033 42.2822 695.033 42.2813C695.033 42.2809 695.034 42.2805 695.034 42.2802C695.034 42.2799 695.034 42.2797 694.5 42ZM664.904 65.405C655.852 66.8728 648.003 63.6967 642.386 60.1167C639.581 58.3285 637.344 56.4469 635.81 55.0128C635.043 54.2961 634.453 53.6922 634.056 53.2691C633.857 53.0575 633.707 52.8913 633.607 52.7788C633.557 52.7225 633.52 52.6798 633.495 52.6515C633.483 52.6374 633.474 52.6268 633.468 52.6201C633.465 52.6167 633.463 52.6143 633.462 52.6128C633.461 52.6121 633.461 52.6116 633.461 52.6113C633.461 52.6112 633.461 52.6112 633.461 52.6111C633.461 52.6112 633.461 52.6113 633 53C632.539 53.3887 632.54 53.3889 632.54 53.3892C632.54 53.3894 632.54 53.3898 632.541 53.3901C632.541 53.3908 632.542 53.3918 632.543 53.393C632.545 53.3954 632.548 53.3988 632.552 53.4031C632.559 53.4117 632.57 53.4241 632.583 53.4401C632.611 53.4722 632.652 53.5189 632.705 53.5791C632.812 53.6996 632.97 53.8741 633.177 54.0942C633.59 54.5344 634.199 55.157 634.987 55.8935C636.562 57.3656 638.857 59.2965 641.739 61.1333C647.497 64.8033 655.648 68.1272 665.096 66.595L664.904 65.405ZM633 53C632.407 53.1098 632.407 53.1101 632.407 53.1106C632.408 53.111 632.408 53.1117 632.408 53.1126C632.408 53.1144 632.409 53.117 632.409 53.1204C632.411 53.1272 632.412 53.1373 632.415 53.1505C632.42 53.177 632.427 53.2162 632.437 53.2678C632.457 53.3708 632.486 53.523 632.525 53.7208C632.604 54.1164 632.72 54.6943 632.875 55.4257C633.185 56.8884 633.647 58.9656 634.259 61.4266C635.481 66.3459 637.3 72.8102 639.688 78.9679C642.07 85.1096 645.041 91.0138 648.594 94.7586C650.375 96.6354 652.335 98.0062 654.477 98.5638C656.638 99.1261 658.921 98.8446 661.293 97.5269L660.707 96.4731C658.579 97.6554 656.612 97.8739 654.781 97.3972C652.931 96.9156 651.157 95.7083 649.469 93.9289C646.084 90.3612 643.18 84.6404 640.812 78.5321C638.45 72.4398 636.644 66.0291 635.429 61.1359C634.821 58.6907 634.362 56.6273 634.055 55.1759C633.901 54.4503 633.785 53.8778 633.708 53.4872C633.669 53.2919 633.641 53.1421 633.621 53.0414C633.612 52.9911 633.604 52.953 633.6 52.9277C633.597 52.915 633.596 52.9055 633.594 52.8992C633.594 52.8961 633.593 52.8938 633.593 52.8923C633.593 52.8915 633.593 52.891 633.593 52.8907C633.593 52.8904 633.593 52.8902 633 53ZM661.293 97.5269C670.147 92.6079 683.762 90.9785 696.918 91.4149C710.068 91.8512 722.597 94.3454 729.239 97.5431L729.761 96.4569C722.903 93.1546 710.182 90.6488 696.957 90.2101C683.738 89.7715 669.853 91.3921 660.707 96.4731L661.293 97.5269ZM729.239 97.5431C731.11 98.4444 733.038 98.3442 734.926 97.5289C736.793 96.7225 738.632 95.2145 740.406 93.2739C743.955 89.3908 747.376 83.6275 750.351 77.7082C753.331 71.7789 755.886 65.6505 757.694 61.0078C758.599 58.6857 759.318 56.7333 759.81 55.3609C760.057 54.6747 760.247 54.1333 760.375 53.7632C760.439 53.5781 760.488 53.4358 760.521 53.3395C760.538 53.2914 760.55 53.2548 760.558 53.2301C760.563 53.2178 760.566 53.2084 760.568 53.2021C760.569 53.199 760.57 53.1966 760.57 53.1949C760.571 53.1941 760.571 53.1934 760.571 53.193C760.571 53.1926 760.571 53.1923 760 53C759.429 52.8077 759.429 52.8078 759.429 52.8081C759.428 52.8085 759.428 52.809 759.428 52.8097C759.428 52.8111 759.427 52.8133 759.426 52.8163C759.424 52.8222 759.421 52.8311 759.417 52.843C759.409 52.8668 759.397 52.9026 759.38 52.9498C759.348 53.0443 759.3 53.1847 759.236 53.3679C759.109 53.7343 758.921 54.2716 758.676 54.9536C758.186 56.3175 757.471 58.2596 756.571 60.5703C754.77 65.1933 752.231 71.2836 749.274 77.1668C746.312 83.06 742.951 88.7029 739.516 92.4605C737.798 94.3402 736.094 95.7111 734.448 96.4223C732.821 97.1246 731.265 97.1806 729.761 96.4569L729.239 97.5431ZM760 53C759.59 52.5583 759.59 52.5582 759.59 52.5582C759.59 52.5583 759.59 52.5583 759.59 52.5584C759.589 52.5587 759.589 52.5591 759.588 52.5597C759.587 52.561 759.585 52.563 759.582 52.5658C759.576 52.5715 759.566 52.5801 759.553 52.5918C759.528 52.6151 759.489 52.6503 759.437 52.6965C759.334 52.7891 759.178 52.9259 758.974 53.1008C758.566 53.4506 757.962 53.9522 757.185 54.5551C755.631 55.7613 753.387 57.3705 750.633 58.9796C745.116 62.2033 737.599 65.3973 729.5 65.3973V66.6027C737.901 66.6027 745.634 63.2967 751.242 60.0204C754.05 58.3795 756.338 56.7387 757.924 55.5074C758.718 54.8915 759.337 54.3775 759.758 54.0164C759.969 53.8358 760.131 53.6934 760.24 53.5955C760.295 53.5465 760.337 53.5087 760.365 53.4828C760.38 53.4699 760.39 53.4599 760.398 53.453C760.402 53.4496 760.405 53.4469 760.407 53.445C760.408 53.4441 760.408 53.4433 760.409 53.4427C760.409 53.4425 760.41 53.4422 760.41 53.4421C760.41 53.4419 760.41 53.4417 760 53ZM729.5 65.3973C725.516 65.3973 721.369 63.9462 717.363 61.723C713.361 59.5023 709.539 56.5335 706.215 53.5514C702.893 50.5709 700.081 47.5885 698.1 45.3504C697.109 44.2318 696.327 43.3002 695.793 42.6491C695.526 42.3236 695.322 42.0682 695.184 41.8948C695.115 41.8081 695.063 41.7419 695.028 41.6976C695.011 41.6754 694.998 41.6588 694.99 41.6478C694.985 41.6423 694.982 41.6382 694.98 41.6356C694.979 41.6343 694.978 41.6333 694.978 41.6327C694.978 41.6324 694.978 41.6322 694.977 41.6321C694.977 41.632 694.977 41.632 694.5 42C694.023 42.368 694.023 42.3682 694.023 42.3685C694.023 42.3687 694.023 42.369 694.024 42.3695C694.024 42.3703 694.025 42.3716 694.027 42.3732C694.029 42.3763 694.033 42.381 694.037 42.387C694.047 42.3991 694.061 42.4169 694.079 42.4401C694.115 42.4867 694.169 42.5552 694.24 42.6443C694.381 42.8224 694.59 43.0827 694.861 43.4134C695.403 44.0748 696.195 45.0182 697.197 46.1496C699.2 48.4115 702.044 51.4291 705.41 54.4486C708.774 57.4665 712.67 60.4977 716.778 62.777C720.881 65.0538 725.234 66.6027 729.5 66.6027V65.3973Z" fill="black"/>
<circle cx="696" cy="162" r="53.5" stroke="black" stroke-width="15"/>
<circle cx="696" cy="162" r="12" fill="black"/>
<line x1="696" y1="159" x2="696" y2="128" stroke="black" stroke-width="12"/>
<line x1="730" y1="161" x2="696" y2="161" stroke="black" stroke-width="12"/>
</g>
<defs>
<clipPath id="clip0_12_2">
<rect width="1127" height="255" fill="white"/>
</clipPath>
</defs>
</svg>
