<?xml version="1.0" standalone="no"?>
<!DOCTYPE svg PUBLIC "-//W3C//DTD SVG 20010904//EN"
 "http://www.w3.org/TR/2001/REC-SVG-20010904/DTD/svg10.dtd">
<svg version="1.0" xmlns="http://www.w3.org/2000/svg"
 width="624.000000pt" height="624.000000pt" viewBox="0 0 624.000000 624.000000"
 preserveAspectRatio="xMidYMid meet">
<metadata>
Created by potrace 1.14, written by Peter Selinger 2001-2017
</metadata>
<g transform="translate(0.000000,624.000000) scale(0.100000,-0.100000)"
fill="#000000" stroke="none">
<path d="M2973 6175 c-134 -35 -486 -152 -559 -186 -100 -47 -204 -191 -219
-304 -9 -66 -26 -91 -78 -113 -64 -29 -77 -32 -77 -21 0 18 -74 80 -130 108
-62 32 -177 61 -242 61 -24 0 -77 -9 -118 -21 -41 -12 -79 -22 -85 -23 -5 -1
-111 -35 -234 -76 -248 -81 -326 -123 -392 -208 -36 -48 -76 -124 -84 -161 -3
-12 -8 -31 -11 -43 -11 -44 -3 -304 10 -327 2 -3 7 -42 11 -85 4 -43 8 -86 10
-95 1 -9 6 -45 10 -81 3 -36 8 -78 10 -95 2 -16 6 -57 10 -90 3 -33 8 -73 10
-90 2 -16 7 -61 10 -100 4 -38 9 -77 10 -85 2 -8 6 -46 10 -85 4 -38 8 -81 11
-95 9 -56 18 -168 17 -210 0 -45 -16 -88 -52 -145 -11 -16 -22 -43 -25 -60 -3
-16 -10 -48 -16 -70 -15 -58 -19 -74 -45 -210 -12 -61 -12 -293 1 -375 21
-141 76 -284 158 -408 84 -127 165 -190 284 -222 l43 -11 -7 -57 c-3 -31 -8
-66 -11 -77 -5 -26 -4 -268 2 -320 2 -22 7 -64 10 -93 5 -50 17 -114 30 -172
3 -14 8 -36 11 -50 3 -14 23 -79 45 -145 161 -484 517 -888 979 -1112 136 -66
303 -125 425 -149 142 -28 209 -34 416 -34 231 0 359 14 509 57 543 153 987
527 1230 1038 37 80 116 296 123 340 3 17 9 48 15 70 43 160 55 443 28 641 -8
58 -4 64 64 83 66 19 132 65 203 141 75 81 121 170 173 335 l38 120 1 220 c0
196 -3 230 -23 309 -39 156 -63 224 -94 271 -33 50 -33 61 -8 260 11 84 17
141 25 215 7 70 14 128 20 184 11 92 16 133 20 176 3 25 7 61 10 80 2 19 7 64
10 100 6 68 10 101 20 186 16 127 21 276 11 305 -3 8 -8 28 -10 44 -6 35 -68
161 -93 190 -75 85 -177 135 -466 225 -272 86 -375 102 -482 75 -58 -14 -155
-67 -204 -111 -27 -24 -57 -44 -66 -44 -26 0 -93 41 -110 66 -8 12 -21 54 -29
92 -8 38 -23 87 -34 109 -31 59 -95 126 -151 156 -42 23 -325 131 -371 142 -8
2 -44 13 -80 24 -60 18 -167 47 -215 57 -57 13 -94 9 -212 -21z"/>
</g>
</svg>
