<?xml version="1.0" encoding="utf-8"?>
<!-- Generator: Adobe Illustrator 16.0.0, SVG Export Plug-In . SVG Version: 6.00 Build 0)  -->
<!DOCTYPE svg PUBLIC "-//W3C//DTD SVG 1.1//EN" "http://www.w3.org/Graphics/SVG/1.1/DTD/svg11.dtd">
<svg version="1.1" id="Layer_1" xmlns="http://www.w3.org/2000/svg" xmlns:xlink="http://www.w3.org/1999/xlink" x="0px" y="0px"
	 width="192px" height="272px" viewBox="0 0 192 272" enable-background="new 0 0 192 272" xml:space="preserve">
<g>
	<path fill-rule="evenodd" clip-rule="evenodd" d="M185.603,130.521c-0.353,33.158-3.225,60.885-14.862,86.927
		c-10.84,24.252-27.639,42.112-54.391,48.804c-34.123,8.534-65.724-4.313-84.278-34.341c-12.244-19.816-17.983-41.739-20.537-64.595
		c-3.431-30.71-2.34-61.177,6.551-90.997c6.095-20.443,15.632-39.003,32.39-52.841C87.002-6.685,139.396,2.066,164.357,42.324
		c11.925,19.232,17.121,40.643,19.537,62.816C184.992,115.216,185.271,125.381,185.603,130.521z M142.158,136.207
		c0.47-0.061,0.939-0.12,1.409-0.181c-2.183-16.951-3.753-34.011-6.745-50.817c-2.287-12.845-7.26-24.952-17.089-34.283
		c-12.53-11.896-30.284-11.666-42.598,0.305c-7.36,7.153-12.114,15.891-15.159,25.479c-11.249,35.418-11.231,71.39-4.283,107.523
		c2.727,14.179,7.504,27.692,17.833,38.39c13.833,14.326,34.448,13.777,46.493-2.146c5.586-7.387,9.812-16.257,12.764-25.087
		C141.173,176.275,142.036,156.232,142.158,136.207z"/>
</g>
</svg>
