<?xml version="1.0" encoding="utf-8"?>
<!-- Generator: Adobe Illustrator 16.0.0, SVG Export Plug-In . SVG Version: 6.00 Build 0)  -->
<!DOCTYPE svg PUBLIC "-//W3C//DTD SVG 1.1//EN" "http://www.w3.org/Graphics/SVG/1.1/DTD/svg11.dtd">
<svg version="1.1" id="Layer_1" xmlns="http://www.w3.org/2000/svg" xmlns:xlink="http://www.w3.org/1999/xlink" x="0px" y="0px"
	 width="191.976px" height="271.966px" viewBox="0 0 191.976 271.966" enable-background="new 0 0 191.976 271.966"
	 xml:space="preserve">
<g>
	<path fill-rule="evenodd" clip-rule="evenodd" d="M101.151,64.567c-9.585,5.155-18.333,9.863-27.085,14.565
		c-5.902,3.171-10.015,1.344-11.688-5.231c-1.76-6.913-3.469-13.838-5.291-21.119c12.983-6.961,26.043-13.516,38.635-20.873
		c8.187-4.783,16.473-7.537,25.967-6.464c2.631,0.298,5.324,0.015,7.988,0.054c5.359,0.077,8.294,2.938,8.296,8.214
		c0.014,68.949,0.014,137.899-0.001,206.848c-0.001,5.176-2.701,7.858-7.92,7.9c-6.661,0.053-13.323,0.03-19.985,0.009
		c-6.503-0.021-8.912-2.46-8.913-9.034c-0.006-55.959-0.003-111.917-0.003-167.876C101.151,69.568,101.151,67.577,101.151,64.567z"
		/>
</g>
</svg>
