<?xml version="1.0" encoding="utf-8"?>
<!-- Generator: Adobe Illustrator 16.0.0, SVG Export Plug-In . SVG Version: 6.00 Build 0)  -->
<!DOCTYPE svg PUBLIC "-//W3C//DTD SVG 1.1//EN" "http://www.w3.org/Graphics/SVG/1.1/DTD/svg11.dtd">
<svg version="1.1" id="Layer_1" xmlns="http://www.w3.org/2000/svg" xmlns:xlink="http://www.w3.org/1999/xlink" x="0px" y="0px"
	 width="191.976px" height="271.966px" viewBox="0 0 191.976 271.966" enable-background="new 0 0 191.976 271.966"
	 xml:space="preserve">
<g>
	<path fill-rule="evenodd" clip-rule="evenodd" d="M100.987,53.16c-11.372,6.172-21.94,11.998-32.601,17.65
		c-4.549,2.412-10.995-0.604-12.272-5.584c-2.018-7.875-4.081-15.745-5.748-23.695c-0.285-1.355,0.88-3.883,2.099-4.554
		c18.16-10.005,36.42-19.832,54.731-29.56c1.788-0.95,4.064-1.31,6.128-1.355C120.481,5.9,127.645,5.995,134.806,6
		c6.834,0.005,10.175,3.351,10.175,10.2c0.002,80.605,0.002,161.209-0.001,241.813c0,6.564-3.376,9.945-9.922,9.951
		c-7.328,0.008-14.655,0.003-21.982,0.002c-8.063-0.001-12.088-3.95-12.088-11.865c-0.001-65.617,0-131.232,0-196.848
		C100.987,57.44,100.987,55.629,100.987,53.16z"/>
</g>
</svg>
