<?xml version="1.0" encoding="utf-8"?>
<!-- Generator: Adobe Illustrator 16.0.0, SVG Export Plug-In . SVG Version: 6.00 Build 0)  -->
<!DOCTYPE svg PUBLIC "-//W3C//DTD SVG 1.1//EN" "http://www.w3.org/Graphics/SVG/1.1/DTD/svg11.dtd">
<svg version="1.1" id="Layer_1" xmlns="http://www.w3.org/2000/svg" xmlns:xlink="http://www.w3.org/1999/xlink" x="0px" y="0px"
	 width="192px" height="272px" viewBox="0 0 192 272" enable-background="new 0 0 192 272" xml:space="preserve">
<g>
	<path fill-rule="evenodd" clip-rule="evenodd" d="M78.826,229c2.697,0,4.461,0,6.225,0c28.49,0,56.98-0.003,85.47,0.002
		c6.729,0.002,9.629,2.881,9.643,9.56c0.014,6.164,0.012,12.329,0.001,18.493c-0.012,6.654-2.694,9.443-9.188,9.445
		c-49.15,0.011-98.3,0.012-147.45-0.002c-6.199-0.002-8.532-3.352-9.525-9.462c-2.197-13.52,3.705-22.292,13.433-31.113
		c26.518-24.045,52.458-48.783,75.422-76.375c10.795-12.971,20.5-26.655,25.583-43.07c3.334-10.769,3.659-21.636,1.085-32.545
		c-3.821-16.189-14.979-25.611-31.826-27.981c-20.725-2.915-38.258,4.235-54.386,16.313c-5.765,4.318-10.73,3.1-13.728-3.489
		c-2.823-6.206-5.443-12.512-8.501-18.6c-1.505-2.996-0.855-4.633,1.616-6.646C46.9,13.821,74.687,5.497,105.539,8.377
		c26.527,2.477,47.646,14.43,60.041,38.907c11.96,23.623,10.959,47.92,2.035,72.18c-7.654,20.805-20.492,38.499-35.328,54.595
		c-15.678,17.008-32.238,33.201-48.413,49.752C82.416,225.302,80.965,226.801,78.826,229z"/>
</g>
</svg>
