<?xml version="1.0" encoding="utf-8"?>
<!-- Generator: Adobe Illustrator 16.0.0, SVG Export Plug-In . SVG Version: 6.00 Build 0)  -->
<!DOCTYPE svg PUBLIC "-//W3C//DTD SVG 1.1//EN" "http://www.w3.org/Graphics/SVG/1.1/DTD/svg11.dtd">
<svg version="1.1" id="Layer_1" xmlns="http://www.w3.org/2000/svg" xmlns:xlink="http://www.w3.org/1999/xlink" x="0px" y="0px"
	 width="192px" height="272px" viewBox="0 0 192 272" enable-background="new 0 0 192 272" xml:space="preserve">
<g>
	<path fill-rule="evenodd" clip-rule="evenodd" d="M14.809,249.038c3.374-9.468,6.426-18.247,9.645-26.966
		c1.42-3.847,7.286-5.578,11.148-3.509c18.189,9.743,37.41,14.462,58.162,12.479c29.551-2.823,47.112-27.619,38.261-54.549
		c-5.084-15.469-17.209-23.039-31.914-27.436c-12.33-3.687-25.022-3.268-37.68-3.229c-6.739,0.021-9.571-2.848-9.598-9.609
		c-0.008-1.999,0.034-4-0.007-5.999c-0.406-19.79-0.498-19.505,19.158-19.544c7.739-0.016,15.594-1.233,23.18-2.892
		c8.216-1.795,15.387-6.054,21.564-11.971c14.438-13.832,11.684-44.805-13.64-50.951C82.496,39.865,63.892,45.2,46.225,55.486
		c-6.4,3.727-11.134,2.237-13.67-4.747c-2.271-6.253-4.261-12.621-6.818-18.753c-1.406-3.371-0.489-5.076,2.335-6.9
		C52.258,9.469,78.792,3.79,107.203,6.607c16.278,1.614,31.201,7.082,43.272,18.537c27.208,25.819,25.374,68.635-3.859,92.362
		c-3.851,3.126-8.053,5.818-12.011,8.653c5.521,3.215,11.331,6.006,16.492,9.702c30.91,22.133,36.832,66.813,13.24,98.201
		c-13.059,17.375-30.873,27.179-51.675,31.632c-28.684,6.142-56.629,3.222-83.48-8.732
		C24.354,254.813,19.881,251.861,14.809,249.038z"/>
</g>
</svg>
