<?xml version="1.0" encoding="utf-8"?>
<!-- Generator: Adobe Illustrator 16.0.0, SVG Export Plug-In . SVG Version: 6.00 Build 0)  -->
<!DOCTYPE svg PUBLIC "-//W3C//DTD SVG 1.1//EN" "http://www.w3.org/Graphics/SVG/1.1/DTD/svg11.dtd">
<svg version="1.1" id="Layer_1" xmlns="http://www.w3.org/2000/svg" xmlns:xlink="http://www.w3.org/1999/xlink" x="0px" y="0px"
	 width="192px" height="272px" viewBox="0 0 192 272" enable-background="new 0 0 192 272" xml:space="preserve">
<g>
	<path fill-rule="evenodd" clip-rule="evenodd" d="M115.832,198c-2.527,0-4.341,0-6.154,0c-32.666,0-65.331,0.004-97.997-0.003
		c-6.138-0.002-8.605-2.998-9.292-8.952c-1.574-13.635,2.844-24.618,10.864-35.813c32.78-45.756,64.675-92.146,96.774-138.388
		c2.393-3.446,4.728-5.178,9.203-4.978c9.647,0.432,19.327,0.116,28.993,0.139c5.741,0.014,8.77,3.048,8.771,8.814
		c0.01,45.499,0.006,90.997,0.006,136.495c0,1.985,0,3.971,0,6.685c8.315,0,16.406-0.006,24.498,0.002
		c6.74,0.007,9.651,2.879,9.667,9.54c0.013,5.5,0.008,11,0.001,16.499c-0.008,7.128-2.771,9.951-9.752,9.957
		C173.453,198.006,165.493,198,157,198c0,2.706,0,4.987,0,7.268c0,16.666,0.006,33.332-0.003,49.998
		c-0.004,6.368-2.911,9.223-9.411,9.236c-7.832,0.017-15.666,0.048-23.498-0.014c-5.128-0.039-8.234-3.201-8.243-8.375
		c-0.03-17.332-0.013-34.665-0.013-51.998C115.832,202.308,115.832,200.5,115.832,198z M51.198,161.65c21.812,0,43.031,0,64.326,0
		c0-30.984,0-61.618,0-91.342C94.385,100.326,72.921,130.804,51.198,161.65z"/>
</g>
</svg>
