<?xml version="1.0" encoding="utf-8"?>
<!-- Generator: Adobe Illustrator 16.0.0, SVG Export Plug-In . SVG Version: 6.00 Build 0)  -->
<!DOCTYPE svg PUBLIC "-//W3C//DTD SVG 1.1//EN" "http://www.w3.org/Graphics/SVG/1.1/DTD/svg11.dtd">
<svg version="1.1" id="Layer_1" xmlns="http://www.w3.org/2000/svg" xmlns:xlink="http://www.w3.org/1999/xlink" x="0px" y="0px"
	 width="192px" height="272px" viewBox="0 0 192 272" enable-background="new 0 0 192 272" xml:space="preserve">
<g>
	<path fill-rule="evenodd" clip-rule="evenodd" d="M15.899,248.964c2.98-9.173,5.659-17.567,8.441-25.927
		c1.663-4.997,6.981-6.984,11.884-4.567c17.252,8.506,35.469,12.916,54.631,10.46c40.999-5.256,52.407-42.53,38.935-69.993
		c-5.997-12.227-16.9-18.448-29.492-22.03c-18.129-5.158-36.54-4.581-55.011-2.379c-2.792,0.333-6.133,1.446-8.298,0.36
		c-3.111-1.561-5.988-3.875-5.283-8.923C37.073,87.558,42.072,49.1,47.205,10.66C47.312,9.863,47.666,9.1,48.002,8
		c1.709,0,3.351,0,4.994,0c36.991,0,73.981-0.002,110.971,0.001C171.164,8.002,173.996,10.9,174,18.249
		c0.002,6.165,0.01,12.33-0.002,18.495c-0.013,6.369-2.994,9.415-9.283,9.418c-26.16,0.013-52.32,0.005-78.48,0.006
		c-1.807,0-3.614,0-5.917,0c-2.555,17.037-5.059,33.739-7.637,50.936c2.578,0,4.67,0.068,6.757-0.011
		c20.457-0.778,40.156,2.138,58.528,11.771c28.196,14.785,43.861,45.702,40.651,77.414c-4.562,45.046-40.297,75.82-84.335,79.802
		c-22.633,2.046-44.503-1.131-65.396-10.185C24.5,253.996,20.417,251.398,15.899,248.964z"/>
</g>
</svg>
