<?xml version="1.0" encoding="utf-8"?>
<!-- Generator: Adobe Illustrator 16.0.0, SVG Export Plug-In . SVG Version: 6.00 Build 0)  -->
<!DOCTYPE svg PUBLIC "-//W3C//DTD SVG 1.1//EN" "http://www.w3.org/Graphics/SVG/1.1/DTD/svg11.dtd">
<svg version="1.1" id="Layer_1" xmlns="http://www.w3.org/2000/svg" xmlns:xlink="http://www.w3.org/1999/xlink" x="0px" y="0px"
	 width="192px" height="272px" viewBox="0 0 192 272" enable-background="new 0 0 192 272" xml:space="preserve">
<g>
	<path fill-rule="evenodd" clip-rule="evenodd" d="M161.996,6.642c0,10.275,0.092,20.097-0.045,29.915
		c-0.057,3.979-4.329,7.309-8.994,7.265c-16.742-0.157-32.725,3.231-47.965,10.134C82.319,64.223,61.868,87.95,57.574,107.954
		c9.074-3.914,18.505-9.346,28.663-12.133c47.943-13.152,93.009,17.766,98.847,67.095c3.551,29.998-3.113,56.991-23.795,79.596
		c-17.401,19.02-39.688,27.075-65.047,26.115c-45.76-1.733-72.019-31.783-81.369-65.751c-13.256-48.161-7.16-94.294,19.69-136.603
		c21.157-33.338,53.13-50.989,91.595-57.202c10.473-1.691,21.171-1.998,31.77-2.878C159.045,6.101,160.195,6.43,161.996,6.642z
		 M141.971,179.452c0-2.497,0.241-5.021-0.039-7.486c-1.736-15.298-6.465-29.242-20.813-37.215
		c-15.931-8.852-32.332-8.7-47.894,0.947c-15.043,9.326-23.963,22.133-21.288,41.104c2.045,14.511,5.005,28.55,14.271,40.396
		c19.08,24.396,56.579,20.231,69.831-7.714C140.545,199.98,142.308,189.907,141.971,179.452z"/>
</g>
</svg>
