<?xml version="1.0" encoding="utf-8"?>
<!-- Generator: Adobe Illustrator 16.0.0, SVG Export Plug-In . SVG Version: 6.00 Build 0)  -->
<!DOCTYPE svg PUBLIC "-//W3C//DTD SVG 1.1//EN" "http://www.w3.org/Graphics/SVG/1.1/DTD/svg11.dtd">
<svg version="1.1" id="Layer_1" xmlns="http://www.w3.org/2000/svg" xmlns:xlink="http://www.w3.org/1999/xlink" x="0px" y="0px"
	 width="192px" height="272px" viewBox="0 0 192 272" enable-background="new 0 0 192 272" xml:space="preserve">
<g>
	<path fill-rule="evenodd" clip-rule="evenodd" d="M131.662,47.836c-7.619,0-14.436,0-21.251,0c-28.331,0-56.662,0.004-84.992-0.003
		c-6.944-0.001-9.907-2.973-9.922-9.935c-0.014-6.166-0.02-12.332,0.001-18.498c0.021-6.275,3.125-9.396,9.365-9.396
		c48.495-0.007,96.99-0.007,145.486,0c6.183,0,9.031,3.271,9.572,9.323c1.133,12.678-2.297,23.884-7.828,35.314
		c-33.04,68.275-65.545,136.811-98.086,205.326c-1.707,3.594-3.691,4.75-7.549,4.631c-9.324-0.286-18.662-0.074-27.995-0.1
		c-6.232-0.017-9.795-5.446-7.104-10.958c20.658-42.302,41.343-84.59,62.038-126.874c12.067-24.656,24.171-49.296,36.241-73.951
		C130.283,51.398,130.77,50.003,131.662,47.836z"/>
</g>
</svg>
