<?xml version="1.0" encoding="utf-8"?>
<!-- Generator: Adobe Illustrator 16.0.0, SVG Export Plug-In . SVG Version: 6.00 Build 0)  -->
<!DOCTYPE svg PUBLIC "-//W3C//DTD SVG 1.1//EN" "http://www.w3.org/Graphics/SVG/1.1/DTD/svg11.dtd">
<svg version="1.1" id="Layer_1" xmlns="http://www.w3.org/2000/svg" xmlns:xlink="http://www.w3.org/1999/xlink" x="0px" y="0px"
	 width="192px" height="272px" viewBox="0 0 192 272" enable-background="new 0 0 192 272" xml:space="preserve">
<g>
	<path fill-rule="evenodd" clip-rule="evenodd" d="M142.356,127.858c7.167,5.32,14.527,9.753,20.652,15.503
		c31.482,29.556,28.114,80.312-6.901,106.529c-20.277,15.183-43.478,20.107-68.334,18.47c-19.9-1.312-38.294-7.021-53.802-20.03
		c-32.898-27.598-32.666-76.628,0.507-104.857c5.29-4.502,11.215-8.256,17.056-12.508c-0.658-0.543-1.446-1.348-2.373-1.936
		C5.521,101.332,10.838,43.843,50.674,19.043c29.682-18.478,74.541-17.521,100.488,2.706c33.339,25.99,32.43,74.906-1.893,101.12
		C146.91,124.671,144.455,126.348,142.356,127.858z M97.103,234.482c4.115-0.512,8.301-0.705,12.334-1.59
		c15.333-3.365,26.577-11.781,30.147-27.613c3.682-16.327-0.094-31.014-13.904-41.424c-6.27-4.727-13.932-7.578-20.859-11.465
		c-9.338-5.241-17.907-3.216-26.713,1.727c-17.793,9.987-26.534,26.456-24.061,46.485C56.492,220.42,74.089,234.148,97.103,234.482z
		 M97.412,40.002c-0.832,0-1.664-0.015-2.495,0.002c-16.349,0.321-28.925,9.434-33.033,23.931
		c-4.518,15.944,0.911,29.96,15.259,39.105c2.653,1.69,5.613,2.897,8.283,4.566c12.888,8.056,23.977,4.767,34.625-4.727
		c12.254-10.924,16.545-26.92,10.753-42.634C125.93,47.021,114.35,40,97.412,40.002z"/>
</g>
</svg>
