<?xml version="1.0" encoding="utf-8"?>
<!-- Generator: Adobe Illustrator 16.0.0, SVG Export Plug-In . SVG Version: 6.00 Build 0)  -->
<!DOCTYPE svg PUBLIC "-//W3C//DTD SVG 1.1//EN" "http://www.w3.org/Graphics/SVG/1.1/DTD/svg11.dtd">
<svg version="1.1" id="Layer_1" xmlns="http://www.w3.org/2000/svg" xmlns:xlink="http://www.w3.org/1999/xlink" x="0px" y="0px"
	 width="192px" height="272px" viewBox="0 0 192 272" enable-background="new 0 0 192 272" xml:space="preserve">
<g>
	<path fill-rule="evenodd" clip-rule="evenodd" d="M31.176,269.19c0-11.706-0.111-21.515,0.058-31.317
		c0.063-3.643,4.65-6.858,8.883-6.816c18.362,0.181,36.211-2.164,52.645-11.087c22.768-12.361,36.704-31.712,44.157-56.134
		c0.131-0.428-0.063-0.954-0.146-1.91c-10.267,7.592-21.45,12.281-33.734,14.609c-47.8,9.061-90.136-24.125-92.14-72.746
		C9.364,66.566,23.091,36.508,55.636,17.185C90.889-3.748,150.439-0.674,174.812,58.451c18.667,45.284,11.814,121.216-24.27,163.879
		c-21.104,24.952-47.989,39.135-80.054,43.557C57.716,267.647,44.763,268.09,31.176,269.19z M53.473,94.594
		c0.177,2.822,0.298,5.649,0.542,8.466c1.597,18.453,12.776,33.089,28.762,37.7c18.673,5.388,40.251-1.133,52.184-16.456
		c3.03-3.892,5.937-9.071,6.125-13.771c0.638-15.903-1.456-31.611-8.706-46.107c-7.314-14.625-18.982-22.951-35.705-22.946
		c-16.691,0.006-28.271,8.414-35.925,22.781C55.706,73.726,53.899,83.994,53.473,94.594z"/>
</g>
</svg>
